<svg width="720" height="400" xmlns="http://www.w3.org/2000/svg">
 <desc>Created with Snap</desc>
 <defs>
  <linearGradient id="linearGradientSkj9uf2952sz" y2="0.5" x2="1" y1="0.5" x1="0">
   <stop stop-color="#ffffff" offset="0%"/>
   <stop stop-color="#ffffff" offset="100%"/>
  </linearGradient>
  <linearGradient id="linearGradientSkj9uf29535q" y2="0.5" x2="1" y1="0.5" x1="0">
   <stop stop-color="#ffffff" offset="0%"/>
   <stop stop-color="#ffffff" offset="100%"/>
  </linearGradient>
  <linearGradient id="linearGradientSkj9uf29535t" y2="0.5" x2="1" y1="0.5" x1="0">
   <stop stop-color="#ffffff" offset="0%"/>
   <stop stop-color="#ffffff" offset="100%"/>
  </linearGradient>
  <linearGradient id="linearGradientSkj9uf29535w" y2="0.5" x2="1" y1="0.5" x1="0">
   <stop stop-color="#ffffff" offset="0%"/>
   <stop stop-color="#ffffff" offset="100%"/>
  </linearGradient>
  <linearGradient id="linearGradientSkj9uf29535z" y2="0.5" x2="1" y1="0.5" x1="0">
   <stop stop-color="#ffffff" offset="0%"/>
   <stop stop-color="#ffffff" offset="100%"/>
  </linearGradient>
  <linearGradient id="linearGradientSkj9uf295362" y2="0.5" x2="1" y1="0.5" x1="0">
   <stop stop-color="#ffffff" offset="0%"/>
   <stop stop-color="#ffffff" offset="100%"/>
  </linearGradient>
  <linearGradient id="linearGradientSkj9uf295365" y2="0.5" x2="1" y1="0.5" x1="0">
   <stop stop-color="#ffffff" offset="0%"/>
   <stop stop-color="#ffffff" offset="100%"/>
  </linearGradient>
  <linearGradient id="linearGradientSkj9uf295368" y2="0.5" x2="1" y1="0.5" x1="0">
   <stop stop-color="#ffffff" offset="0%"/>
   <stop stop-color="#ffffff" offset="100%"/>
  </linearGradient>
  <linearGradient id="linearGradientSkj9uf29536b" y2="0.5" x2="1" y1="0.5" x1="0">
   <stop stop-color="#ffffff" offset="0%"/>
   <stop stop-color="#ffffff" offset="100%"/>
  </linearGradient>
  <linearGradient id="linearGradientSkj9uf29536e" y2="0.5" x2="1" y1="0.5" x1="0">
   <stop stop-color="#ffffff" offset="0%"/>
   <stop stop-color="#ffffff" offset="100%"/>
  </linearGradient>
  <linearGradient id="linearGradientSkj9uf29536h" y2="0.5" x2="1" y1="0.5" x1="0">
   <stop stop-color="#ffffff" offset="0%"/>
   <stop stop-color="#ffffff" offset="100%"/>
  </linearGradient>
  <linearGradient id="linearGradientSkj9uf29536k" y2="0.5" x2="1" y1="0.5" x1="0">
   <stop stop-color="#ffffff" offset="0%"/>
   <stop stop-color="#ffffff" offset="100%"/>
  </linearGradient>
  <linearGradient id="linearGradientSkj9uf29536n" y2="0.5" x2="1" y1="0.5" x1="0">
   <stop stop-color="#ffffff" offset="0%"/>
   <stop stop-color="#ffffff" offset="100%"/>
  </linearGradient>
  <linearGradient id="linearGradientSkj9uf29536q" y2="0.5" x2="1" y1="0.5" x1="0">
   <stop stop-color="#ffffff" offset="0%"/>
   <stop stop-color="#ffffff" offset="100%"/>
  </linearGradient>
  <linearGradient id="linearGradientSkj9uf29536t" y2="0.5" x2="1" y1="0.5" x1="0">
   <stop stop-color="#ffffff" offset="0%"/>
   <stop stop-color="#ffffff" offset="100%"/>
  </linearGradient>
  <linearGradient id="linearGradientSkj9uf29536w" y2="0.5" x2="1" y1="0.5" x1="0">
   <stop stop-color="#ffffff" offset="0%"/>
   <stop stop-color="#ffffff" offset="100%"/>
  </linearGradient>
  <linearGradient id="linearGradientSkj9uf29536z" y2="0.5" x2="1" y1="0.5" x1="0">
   <stop stop-color="#ffffff" offset="0%"/>
   <stop stop-color="#ffffff" offset="100%"/>
  </linearGradient>
  <linearGradient id="linearGradientSkj9uf295372" y2="0.5" x2="1" y1="0.5" x1="0">
   <stop stop-color="#ffffff" offset="0%"/>
   <stop stop-color="#ffffff" offset="100%"/>
  </linearGradient>
  <linearGradient id="linearGradientSkj9uf295375" y2="0.5" x2="1" y1="0.5" x1="0">
   <stop stop-color="#ffffff" offset="0%"/>
   <stop stop-color="#ffffff" offset="100%"/>
  </linearGradient>
  <linearGradient id="linearGradientSkj9uf295378" y2="0.5" x2="1" y1="0.5" x1="0">
   <stop stop-color="#ffffff" offset="0%"/>
   <stop stop-color="#ffffff" offset="100%"/>
  </linearGradient>
 </defs>
 <g>
  <title>background</title>
  <rect fill="none" id="canvas_background" height="402" width="722" y="-1" x="-1"/>
 </g>
 <g>
  <title>Layer 1</title>
  <g id="svg_26" transform="matrix(1,0,0,1,370,214) " class="selector-part">
   <rect id="svg_27" fill="rgba(255,255,255,0)" height="246" width="559" y="-211" x="-327"/>
  </g>
  <g id="svg_28" class="svg-clip svg-visible" transform="matrix(1.7415,0,0,1.7415,570.2988,366.2988) ">
   <rect id="svg_29" class="svg-hitbox" fill="none" height="41" width="41" y="-121.15992" x="-187.76916"/>
   <g id="svg_1">
    <svg y="-121.15992" x="-187.76916" id="svg_30" viewBox="50.55499999999999,115.141,41.667,41.66599999999998" height="41.666" width="41.667">
     <desc>Created with Snap</desc>

     <g id="svg_31"/>
     <g id="svg_32"/>
     <g id="svg_33"/>
     <g id="svg_34">
      <path id="svg_35" fill="url('#linearGradientSkj9uf29535q')" d="m71.389,120.141c-8.745,0 -15.834,7.089 -15.834,15.834c0,8.744 7.089,15.832 15.834,15.832c8.744,0 15.833,-7.088 15.833,-15.832c0,-8.746 -7.089,-15.834 -15.833,-15.834zm0,22.492c-3.683,0 -6.668,-2.984 -6.668,-6.666c0,-3.683 2.985,-6.668 6.668,-6.668c3.682,0 6.666,2.985 6.666,6.668c0,3.681 -2.985,6.666 -6.666,6.666z"/>
     </g>
    </svg>
   </g>
  </g>
  <g id="svg_36" class="svg-clip svg-visible" transform="matrix(1.7415,0,0,1.7415,508.8884,308.5298) ">
   <rect id="svg_37" class="svg-hitbox" fill="none" height="66" width="239" y="-121.15992" x="-187.76916"/>
   <g id="svg_2">
    <svg y="-121.15992" x="-187.76916" id="svg_38" viewBox="16.113104792908107,81.01127646757189,239.27389520709195,66.33872353242813" height="66.33872" width="239.2739">
     <desc>Created with Snap</desc>

     <g id="svg_39"/>
     <g id="svg_40"/>
     <g id="svg_41"/>
     <g id="svg_42">
      <path id="svg_43" fill="url('#linearGradientSkj9uf29535t')" d="m248.055,125.184c0,0 1.666,-10.001 1.5,-12.668c-0.167,-2.666 -23.334,-4.332 -39,-5.666c-8.608,-0.732 -15.601,-0.66 -20.159,-0.445c0.056,0.03 0.115,0.064 0.157,0.086c0.085,0.015 0.148,0.033 0.168,0.059c0.025,0.033 -0.035,0.011 -0.168,-0.059c-0.266,-0.047 -0.828,-0.047 -1.592,-0.011c-2.835,0.169 -4.406,0.37 -4.406,0.37l-0.045,-0.023c-4.202,0.399 -8.988,0.973 -8.988,0.973l-22.926,-15.75l0.566,-1.357l-2.607,-1.342c0,0 -5.667,-3.5 -23.667,-3.334c-18,0.168 -31.333,4.5 -31.333,4.5s-46.167,15.668 -46.667,16c-0.5,0.334 -25,2.668 -25,2.668s-8,19.999 3.167,27.832l24.166,2.5l2.291,0.154c-0.24,-1.191 -0.369,-2.422 -0.369,-3.684c0,-10.218 8.283,-18.5 18.5,-18.5c10.218,0 18.5,8.282 18.5,18.5c0,2.127 -0.377,4.162 -1.038,6.064l4.45,0.299l98.833,-0.85c0,0 2.089,-0.082 5.36,-0.221c-0.501,-1.678 -0.779,-3.453 -0.779,-5.293c0,-10.218 8.283,-18.5 18.5,-18.5c10.218,0 18.5,8.282 18.5,18.5c0,1.129 -0.117,2.23 -0.311,3.305c0.381,-0.037 0.741,-0.072 1.062,-0.107c9,-1 12.5,-3.834 12.5,-3.834l0,-5.5l3.167,-0.334l0,-4.174l-2.332,-0.158zm-176.403,-19.489l0,-1.332l3.931,-1.188l0.403,2.52l-4.334,0zm8.078,0.282l-0.646,-3.859l2.899,-0.876l0.684,4.735l-2.937,0zm64.825,-14.461l21.166,16.5l-57.333,0l-4.167,-13.333c0,0 20.5,-5.5 40.334,-3.167zm-49.736,5.847l3,9l-4.464,-0.114l-1.95,-7.854l3.414,-1.032zm-9.666,2.92l3.283,-0.992l1.382,6.867l-3.338,-0.084l-1.327,-5.791zm75.318,33.865l-21.417,0.275c-3.569,0.037 -7.139,0.105 -10.708,0.107l-10.708,0.043l-21.417,0.088l-0.948,0.004l-0.039,-0.997c-0.021,-0.548 -0.025,-1.097 -0.06,-1.643c-0.062,-0.542 -0.081,-1.092 -0.175,-1.628c-0.076,-0.54 -0.159,-1.078 -0.287,-1.607c-0.099,-0.535 -0.27,-1.05 -0.41,-1.574c-0.179,-0.51 -0.344,-1.026 -0.563,-1.52c-0.2,-0.5 -0.44,-0.984 -0.697,-1.454c-0.252,-0.474 -0.538,-0.927 -0.842,-1.36c-0.152,-0.217 -0.312,-0.429 -0.477,-0.629c-0.156,-0.194 -0.352,-0.409 -0.483,-0.54l-1.656,-1.644l2.292,-0.02l19.709,-0.168l9.855,-0.072l9.855,-0.002l9.855,-0.004c3.285,0.004 6.57,-0.014 9.856,0.022c6.571,0.06 13.142,0.072 19.714,0.188c-6.567,0.281 -13.136,0.46 -19.703,0.685c-3.283,0.119 -6.568,0.185 -9.853,0.271l-9.853,0.244l-9.853,0.246l-9.854,0.176l-17.723,0.295c0.311,0.445 0.602,0.9 0.857,1.372c0.295,0.528 0.567,1.07 0.797,1.627c0.249,0.55 0.438,1.121 0.641,1.688c0.163,0.576 0.353,1.148 0.468,1.736c0.146,0.582 0.241,1.172 0.33,1.763c0.107,0.589 0.119,1.187 0.183,1.779c0.015,0.265 0.016,0.528 0.021,0.793l20.457,0.084l10.708,0.044c3.569,0 7.139,0.07 10.708,0.107l21.417,0.275c7.139,0.158 14.277,0.255 21.416,0.473c-7.136,0.222 -14.275,0.317 -21.413,0.477z"/>
     </g>
    </svg>
   </g>
  </g>
  <g id="svg_44" class="svg-clip svg-visible" transform="matrix(1.7415,0,0,1.7415,821.2988,366.2988) ">
   <rect id="svg_45" class="svg-hitbox" fill="none" height="41" width="41" y="-121.15992" x="-187.76916"/>
   <g id="svg_3">
    <svg y="-121.15992" x="-187.76916" id="svg_46" viewBox="194.389,115.141,41.666,41.66599999999998" height="41.666" width="41.666">
     <desc>Created with Snap</desc>

     <g id="svg_47"/>
     <g id="svg_48"/>
     <g id="svg_49"/>
     <g id="svg_50">
      <path id="svg_51" fill="url('#linearGradientSkj9uf29535w')" d="m215.222,120.141c-8.745,0 -15.833,7.089 -15.833,15.834c0,8.744 7.088,15.832 15.833,15.832s15.833,-7.088 15.833,-15.832c0,-8.746 -7.088,-15.834 -15.833,-15.834zm0.001,22.5c-3.683,0 -6.668,-2.984 -6.668,-6.666c0,-3.683 2.985,-6.668 6.668,-6.668c3.682,0 6.666,2.985 6.666,6.668c0,3.681 -2.985,6.666 -6.666,6.666z"/>
     </g>
    </svg>
   </g>
  </g>
  <g id="svg_52" class="svg-clip svg-visible" transform="matrix(0.546,-0.2663,0.2663,0.546,507.3926,321.4903) ">
   <rect id="svg_53" class="svg-hitbox" fill="none" height="119" width="120" y="-548.15372" x="-331.55067"/>
   <g id="svg_4">
    <svg y="-548.15372" x="-331.55067" id="svg_54" viewBox="159.15263409266174,175.72228726405905,120.15034394057449,119.08971273594096" height="119.08971" width="120.15034">
     <desc>Created with Snap</desc>

     <g id="svg_55"/>
     <g id="svg_56"/>
     <g id="svg_57"/>
     <g id="svg_58">
      <path id="svg_59" fill="url('#linearGradientSkj9uf29535z')" d="m233.891,219.266c4.727,-10.462 -4.865,-15.181 -12.64,-10.353c-10.857,6.731 -9.597,21.941 -3.002,31.114c4.7,6.539 12.135,11.375 20.964,11.578c38.744,0.849 49.614,-52.358 11.046,-66.663c-60.461,-22.429 -113.678,49.219 -70.261,104.87c0,0 -21.562,-61.315 27.74,-76.687c6.029,-11.319 19.269,-16.525 27.735,-10.253c13.153,9.724 -3.907,21.531 -1.582,16.394l0,0z" clip-rule="evenodd" fill-rule="evenodd"/>
     </g>
    </svg>
   </g>
  </g>
  <g id="svg_60" class="svg-clip svg-visible" transform="matrix(0.546,-0.2663,0.2663,0.546,526.7801,337.8217) ">
   <rect id="svg_61" class="svg-hitbox" fill="none" height="121" width="59" y="-548.15372" x="-331.55067"/>
   <g id="svg_5">
    <svg y="-548.15372" x="-331.55067" id="svg_62" viewBox="175.42981655029126,213.89504856624384,59.22218344970872,121.34995143375616" height="121.34995" width="59.22218">
     <desc>Created with Snap</desc>

     <g id="svg_63"/>
     <g id="svg_64"/>
     <g id="svg_65"/>
     <g id="svg_66">
      <path id="svg_67" fill="url('#linearGradientSkj9uf295362')" d="m206.337,218.897c0.238,0.296 -4.569,9.4 5.789,24.265c-1.369,0.286 -34.794,39.203 17.526,87.083c-43.644,-26.016 -52.44,-58.67 -48.306,-79.239c4.681,-23.317 24.869,-32.263 24.991,-32.109l0,0z" clip-rule="evenodd" fill-rule="evenodd"/>
     </g>
    </svg>
   </g>
  </g>
  <g id="svg_68" class="svg-clip svg-visible" transform="matrix(0.546,-0.2663,0.2663,0.546,490.8046,317.0702) ">
   <rect id="svg_69" class="svg-hitbox" fill="none" height="133" width="108" y="-548.15372" x="-331.55067"/>
   <g id="svg_6">
    <svg y="-548.15372" x="-331.55067" id="svg_70" viewBox="136.9524757881991,157.77293402729092,108.9785242118009,133.32406597270906" height="133.32407" width="108.97852">
     <desc>Created with Snap</desc>

     <g id="svg_71"/>
     <g id="svg_72"/>
     <g id="svg_73"/>
     <g id="svg_74">
      <path id="svg_75" fill="url('#linearGradientSkj9uf295365')" d="m240.931,177.274c0,0 -16.123,-13.163 -34.274,-14.396c-35.789,-2.45 -67.84,38.41 -64.459,74.24c2.039,21.604 16.483,42.23 28.05,48.979c-23.55,-32.838 -9.683,-71.598 2.981,-85.588c23.559,-26.032 47.163,-26.585 67.702,-23.235l0,0z" clip-rule="evenodd" fill-rule="evenodd"/>
     </g>
    </svg>
   </g>
  </g>
  <g id="svg_76" class="svg-clip svg-visible" transform="matrix(0.546,-0.2663,0.2663,0.546,474.5145,304.396) ">
   <rect id="svg_77" class="svg-hitbox" fill="none" height="144" width="133" y="-548.15372" x="-331.55067"/>
   <g id="svg_7">
    <svg y="-548.15372" x="-331.55067" id="svg_78" viewBox="122.38100772242537,127.38163232098427,133.71299227757464,144.11736767901576" height="144.11737" width="133.71299">
     <desc>Created with Snap</desc>

     <g id="svg_79"/>
     <g id="svg_80"/>
     <g id="svg_81"/>
     <g id="svg_82">
      <path id="svg_83" fill="url('#linearGradientSkj9uf295368')" d="m251.094,179.742c0,0 -10.627,-12.653 -5.954,-33.353c0,0 -44.012,-37.743 -91.734,10.681c0,0 -52.254,53.773 -8.676,109.429c-16.042,-33.983 -6.373,-68.201 15.632,-90.083c22.703,-22.575 62.079,-30.056 90.732,3.326l0,0z" clip-rule="evenodd" fill-rule="evenodd"/>
     </g>
    </svg>
   </g>
  </g>
  <g id="svg_84" class="svg-clip svg-visible" transform="matrix(0.546,-0.2663,0.2663,0.546,460.2122,293.4737) ">
   <rect id="svg_85" class="svg-hitbox" fill="none" height="194" width="161" y="-548.15372" x="-331.55067"/>
   <g id="svg_8">
    <svg y="-548.15372" x="-331.55067" id="svg_86" viewBox="109.53415345065439,100.06202272895464,161.18584654934563,194.89997727104534" height="194.89998" width="161.18585">
     <desc>Created with Snap</desc>

     <g id="svg_87"/>
     <g id="svg_88"/>
     <g id="svg_89"/>
     <g id="svg_90">
      <path id="svg_91" fill="url('#linearGradientSkj9uf29536b')" d="m247.168,140.088c0,0 7.006,-12.583 18.552,-13.55c-48.037,-72.16 -222.461,51.542 -118.88,163.424c-40.578,-50.154 -31.576,-115.496 19.213,-151.08c21.592,-15.13 54.832,-19.125 81.115,1.206l0,0z" clip-rule="evenodd" fill-rule="evenodd"/>
     </g>
    </svg>
   </g>
  </g>
  <g id="svg_92" class="svg-clip svg-visible" transform="matrix(0.546,-0.2663,0.2663,0.546,444.6028,282.0699) ">
   <rect id="svg_93" class="svg-hitbox" fill="none" height="266" width="238" y="-548.15372" x="-331.55067"/>
   <g id="svg_9">
    <svg y="-548.15372" x="-331.55067" id="svg_94" viewBox="95.7167204654489,73.8554341516022,238.41914569914158,266.2485658483978" height="266.24857" width="238.41915">
     <desc>Created with Snap</desc>

     <g id="svg_95"/>
     <g id="svg_96"/>
     <g id="svg_97"/>
     <g id="svg_98">
      <path id="svg_99" fill="url('#linearGradientSkj9uf29536e')" d="m272.138,125.153c0.563,0.974 1.777,1.332 3.117,1.975c12.794,6.109 14.81,17.703 5.725,27.188c9.947,-30.745 -38.493,-29.558 -31.122,6.531c4.794,23.433 28.069,32.203 51.096,23.828c45.635,-16.729 29.235,-67.208 -2.554,-89.002c-19.112,-13.113 -66.023,-33.999 -135.504,8.705c0,0 -72.479,40.893 -60.933,125.242c6.051,44.183 45.496,84.932 82.204,105.484c0,0 -98.156,-69.644 -71.264,-148.168c10.131,-30.951 39.296,-65.665 74.101,-79.944c29.865,-12.253 66.903,-13.379 85.134,18.161l0,0z" clip-rule="evenodd" fill-rule="evenodd"/>
     </g>
    </svg>
   </g>
  </g>
  <g id="svg_100" class="svg-clip svg-visible" transform="matrix(0.546,-0.2663,0.2663,0.546,424.3416,264.4863) ">
   <rect id="svg_101" class="svg-hitbox" fill="none" height="299" width="91" y="-548.15372" x="-331.55067"/>
   <g id="svg_10">
    <svg y="-548.15372" x="-331.55067" id="svg_102" viewBox="77.32531448316897,31.458242869431892,91.07581712854247,299.6477571305681" height="299.64776" width="91.07582">
     <desc>Created with Snap</desc>

     <g id="svg_103"/>
     <g id="svg_104"/>
     <g id="svg_105"/>
     <g id="svg_106">
      <path id="svg_107" fill="url('#linearGradientSkj9uf29536h')" d="m159.854,96.941c-79.42,59.913 -91.876,154.416 -2.818,229.165c-87.478,-31.522 -95.706,-157.725 -37.383,-226.451c0,0 34.795,-13.029 9.926,-30.852c0,0 10.542,11.909 -0.71,20.628c-8.468,6.571 -21.437,6.205 -29.584,-1.263c-22.039,-20.19 2.29,-52.318 29,-51.701c12.024,0.28 25.798,9.6 31.309,20.999c8.288,17.149 0.497,39.293 0.26,39.475l0,0z" clip-rule="evenodd" fill-rule="evenodd"/>
     </g>
    </svg>
   </g>
  </g>
  <g id="svg_108" class="svg-clip svg-visible" transform="matrix(0.546,-0.2663,0.2663,0.546,424.8303,303.4648) ">
   <rect id="svg_109" class="svg-hitbox" fill="none" height="278" width="213" y="-548.15372" x="-331.55067"/>
   <g id="svg_11">
    <svg y="-548.15372" x="-331.55067" id="svg_110" viewBox="50.00207084540219,90.42700000000004,213.30807365003275,278.37541579967717" height="278.37542" width="213.30807">
     <desc>Created with Snap</desc>

     <g id="svg_111"/>
     <g id="svg_112"/>
     <g id="svg_113"/>
     <g id="svg_114">
      <path id="svg_115" fill="url('#linearGradientSkj9uf29536k')" d="m258.257,362.005c-3.787,-4.193 -111.996,-11.119 -154.711,-69.564c-33.689,-46.094 -40.175,-121.68 8.807,-192.714c-3.961,1.681 -13.043,-3.753 -12.352,-4.3c-38.066,34.517 -49.547,90.518 -43.462,139.876c17.201,139.654 205.394,130.783 201.718,126.702l0,0z" clip-rule="evenodd" fill-rule="evenodd"/>
     </g>
    </svg>
   </g>
  </g>
  <g id="svg_116" class="svg-clip svg-visible" transform="matrix(0.546,-0.2663,0.2663,0.546,434.5753,288.5416) ">
   <rect id="svg_117" class="svg-hitbox" fill="none" height="40" width="26" y="-548.15372" x="-331.55067"/>
   <g id="svg_12">
    <svg y="-548.15372" x="-331.55067" id="svg_118" viewBox="74.77099999999999,75.28010207236798,26.947787327718913,40.63689792763202" height="40.6369" width="26.94779">
     <desc>Created with Snap</desc>

     <g id="svg_119"/>
     <g id="svg_120"/>
     <g id="svg_121"/>
     <g id="svg_122">
      <path id="svg_123" fill="url('#linearGradientSkj9uf29536n')" d="m88.285,80.281c0,0 1.123,6.792 8.353,12.136c0.998,0.122 -7.401,6.042 -16.867,18.5c3.983,-13.093 7.217,-30.782 8.514,-30.636l0,0z" clip-rule="evenodd" fill-rule="evenodd"/>
     </g>
    </svg>
   </g>
  </g>
  <g id="svg_124" class="svg-clip svg-visible" transform="matrix(0.546,-0.2663,0.2663,0.546,375.1126,270.4475) ">
   <rect id="svg_125" class="svg-hitbox" fill="none" height="242" width="94" y="-548.15372" x="-331.55067"/>
   <g id="svg_13">
    <svg y="-548.15372" x="-331.55067" id="svg_126" viewBox="0.04059015197159255,4.909060586512311,94.31512618906149,242.00593941348768" height="242.00594" width="94.31513">
     <desc>Created with Snap</desc>

     <g id="svg_127"/>
     <g id="svg_128"/>
     <g id="svg_129"/>
     <g id="svg_130">
      <path id="svg_131" fill="url('#linearGradientSkj9uf29536q')" d="m28.465,45.735c2.41,-23.03 26.542,-24.095 39.644,-8.73c10.854,12.709 13.251,36.793 -2.319,68.285c-19.045,38.549 -37.132,103.363 -16.926,136.625c0,0 -6.152,-68.707 21.094,-124.396c11.615,-25.329 29.102,-65.551 12.723,-90.095c-15.309,-22.941 -44.507,-21.772 -62.884,-5.602c-14.498,12.755 -23.382,46.226 -2.01,54.899c28.269,11.468 39.361,-22.186 21.063,-30.556c-2.659,-1.225 -6.245,-1.083 -10.385,-0.43l0,0z" clip-rule="evenodd" fill-rule="evenodd"/>
     </g>
    </svg>
   </g>
  </g>
  <g id="svg_132" class="svg-clip svg-visible" transform="matrix(0.546,-0.2663,0.2663,0.546,395.0467,275.8805) ">
   <rect id="svg_133" class="svg-hitbox" fill="none" height="175" width="50" y="-548.15372" x="-331.55067"/>
   <g id="svg_14">
    <svg y="-548.15372" x="-331.55067" id="svg_134" viewBox="26.336711926318973,28.14545788478631,50.749399843905564,175.4195421152137" height="175.41954" width="50.7494">
     <desc>Created with Snap</desc>

     <g id="svg_135"/>
     <g id="svg_136"/>
     <g id="svg_137"/>
     <g id="svg_138">
      <path id="svg_139" fill="url('#linearGradientSkj9uf29536t')" d="m35.305,40.36c-0.63,0.198 15.896,-16.835 29.769,0.766c15.629,19.883 2.143,47.786 -11.394,78.729c-9.789,22.392 -17.628,49.673 -18.068,78.71c0,0 -11.874,-80.091 3.955,-115.776c28.061,-20.664 5.176,-45.348 -4.262,-42.429l0,0z" clip-rule="evenodd" fill-rule="evenodd"/>
     </g>
    </svg>
   </g>
  </g>
  <g id="svg_140" class="svg-clip svg-visible" transform="matrix(0.546,-0.2663,0.2663,0.546,396.4622,309.246) ">
   <rect id="svg_141" class="svg-hitbox" fill="none" height="191" width="48" y="-548.15372" x="-331.55067"/>
   <g id="svg_15">
    <svg y="-548.15372" x="-331.55067" id="svg_142" viewBox="4.5350723018291035,77.91708995755468,48.0369276981709,191.7569100424453" height="191.75691" width="48.03693">
     <desc>Created with Snap</desc>

     <g id="svg_143"/>
     <g id="svg_144"/>
     <g id="svg_145"/>
     <g id="svg_146">
      <path id="svg_147" fill="url('#linearGradientSkj9uf29536w')" d="m16.314,82.926c0,0 -7.564,25.757 -6.712,63.944c0.822,37.004 9.6,85.948 37.97,117.804c-20.009,-53.001 -30.671,-125.416 -14.26,-179.263c-9.547,2.501 -17.305,-2.738 -16.998,-2.485l0,0z" clip-rule="evenodd" fill-rule="evenodd"/>
     </g>
    </svg>
   </g>
  </g>
  <g id="svg_148" class="svg-clip svg-visible" transform="matrix(0.546,-0.2663,0.2663,0.546,557.2312,419.1374) ">
   <rect id="svg_149" class="svg-hitbox" fill="none" height="66" width="249" y="-548.15372" x="-331.55067"/>
   <g id="svg_16">
    <svg y="-548.15372" x="-331.55067" id="svg_150" viewBox="162.76936313334443,357.623217405674,249.6008320996325,66.70322268994113" height="66.70322" width="249.60083">
     <desc>Created with Snap</desc>

     <g id="svg_151"/>
     <g id="svg_152"/>
     <g id="svg_153"/>
     <g id="svg_154">
      <path id="svg_155" fill="url('#linearGradientSkj9uf29536z')" d="m407.367,419.319c-46.398,-73.416 -170.682,-38.541 -226.646,-56.23c-12.861,-3.107 -20.887,10.077 -0.694,17.403c6.181,2.239 38.339,6.611 84.649,1.532c98.551,-10.819 143.129,37.994 142.691,37.295l0,0z" clip-rule="evenodd" fill-rule="evenodd"/>
     </g>
    </svg>
   </g>
  </g>
  <g id="svg_156" class="svg-clip svg-visible" transform="matrix(0.546,-0.2663,0.2663,0.546,554.6221,433.7644) ">
   <rect id="svg_157" class="svg-hitbox" fill="none" height="34" width="113" y="-548.15372" x="-331.55067"/>
   <g id="svg_17">
    <svg y="-548.15372" x="-331.55067" id="svg_158" viewBox="147.55810491967694,376.50844983631555,113.30789508032308,34.56139418538726" height="34.56139" width="113.3079">
     <desc>Created with Snap</desc>

     <g id="svg_159"/>
     <g id="svg_160"/>
     <g id="svg_161"/>
     <g id="svg_162">
      <path id="svg_163" fill="url('#linearGradientSkj9uf295372')" d="m255.866,387.335c0,0 -54.642,8.735 -76.831,-1.447c-6.869,-3.157 -12.597,-5.156 -17.831,-4.091c-10.486,2.127 -11.046,11.231 -3.774,16.905c23.799,18.565 77.059,-2.778 98.436,-11.367l0,0z" clip-rule="evenodd" fill-rule="evenodd"/>
     </g>
    </svg>
   </g>
  </g>
  <g id="svg_164" class="svg-clip svg-visible" transform="matrix(0.546,-0.2663,0.2663,0.546,624.9142,417.3327) ">
   <rect id="svg_165" class="svg-hitbox" fill="none" height="70" width="131" y="-548.15372" x="-331.55067"/>
   <g id="svg_18">
    <svg y="-548.15372" x="-331.55067" id="svg_166" viewBox="263.48607110719615,402.3847684114259,131.84092889280384,70.27083997899956" height="70.27084" width="131.84093">
     <desc>Created with Snap</desc>

     <g id="svg_167"/>
     <g id="svg_168"/>
     <g id="svg_169"/>
     <g id="svg_170">
      <path id="svg_171" fill="url('#linearGradientSkj9uf295375')" d="m390.327,424.828c0,0 -63.154,-33.585 -105.449,-7.551c-15.87,9.782 -24.813,30.748 -5.09,45.518c0,0 20.649,14.487 39.972,-6.56c11.556,-16.395 -8.957,-29.828 -22.352,-17.351c-3.613,3.363 -6.087,8.183 -1.492,13.977c-24.249,-14.428 -5.594,-31.365 19.955,-34.418c26.544,-3.173 63.444,2.061 74.456,6.385l0,0z" clip-rule="evenodd" fill-rule="evenodd"/>
     </g>
    </svg>
   </g>
  </g>
  <g id="svg_172" class="svg-clip svg-visible" transform="matrix(0.546,-0.2663,0.2663,0.546,645.0516,416.7821) ">
   <rect id="svg_173" class="svg-hitbox" fill="none" height="22" width="66" y="-548.15372" x="-331.55067"/>
   <g id="svg_19">
    <svg y="-548.15372" x="-331.55067" id="svg_174" viewBox="294.4881809883565,416.4855059090629,66.3758190116435,22.039494090937126" height="22.03949" width="66.37582">
     <desc>Created with Snap</desc>

     <g id="svg_175"/>
     <g id="svg_176"/>
     <g id="svg_177"/>
     <g id="svg_178">
      <path id="svg_179" fill="url('#linearGradientSkj9uf295378')" d="m299.489,432.172c0,0 12.947,-6.13 21.786,1.353c0,0 14.988,-9.824 34.589,-7.569c-9.574,-7.611 -56.602,-5.481 -56.375,6.216l0,0z" clip-rule="evenodd" fill-rule="evenodd"/>
     </g>
    </svg>
   </g>
  </g>
  <g id="svg_180" class="svg-text svg-visible" transform="matrix(1.5008,0,0,1.5008,685,406) ">
   <path id="svg_181" d="m-455.5338,-13.79169c217.65,-1 257.65,-1 475.3,0" fill="none"/>
   <path id="svg_182" fill="url('#linearGradientSkj9uf2952sz')" d="m-428.3338,-29.09169l0,0q-14.3,0 -19.8,-6.2l0,0q-3.8,-4.4 -3.8,-12.3l0,0q0,-3.4 0.7,-7.3l0,0l4.1,-23q4.5,-25.3 32.5,-25.3l0,0q11.6,0 17.6,4.95q6,4.95 6,13.55l0,0q0,4 -1.15,7.95q-1.15,3.95 -2.25,5.85l0,0l-1.1,2l-17.7,0q3.3,-3.8 3.3,-10.8l0,0q0,-3.7 -1.9,-5.85q-1.9,-2.15 -5.6,-2.15l0,0q-10.1,0 -12,11.2l0,0l-3.5,20.2q-0.5,2.6 -0.5,5.1l0,0q0,6.6 7.9,6.6l0,0q9.5,0 11.4,-10.7l0,0l18,0l-0.5,2.9q-4,23.3 -31.7,23.3zm86.6,-16.8l0,0q0,2.6 2.65,2.6q2.65,0 4.45,-1l0,0l-0.5,11.3q-4.8,3.9 -10.8,3.9l0,0q-11,0 -12.2,-8l0,0q-5,8 -14.7,8l0,0q-16.4,0 -16.4,-14.1l0,0q0,-2.4 0.5,-5.3l0,0l2.1,-11.7q1.6,-9 7.35,-14.35q5.75,-5.35 15,-5.35q9.25,0 12.55,4.3l0,0l0.5,-3l15.2,0l-5.6,31.5q-0.1,0.6 -0.1,1.2zm-28.3,-12.3l-1.3,7.5q-0.2,0.9 -0.2,2.5q0,1.6 1.5,3.15q1.5,1.55 5.05,1.55q3.55,0 6.15,-2.8l0,0l3,-16.8q-1.1,-2.5 -5.2,-2.5l0,0q-7.7,0 -9,7.4l0,0zm90.1,-10.2l0,0q0,3.4 -1.15,6.6q-1.15,3.2 -2.25,4.7l0,0l-1.1,1.4l-15.1,0q2.5,-2.3 2.5,-5.7l0,0q0,-1.8 -1.15,-2.95q-1.15,-1.15 -3.15,-1.15l0,0q-3.4,0 -5.9,3.4l0,0l-5.6,31.6l-17,0l8.5,-48.1l15.8,0l-1.2,6.7q5.7,-8.1 13.8,-8.1l0,0q6.5,0 9.75,3.1q3.25,3.1 3.25,8.5zm72.4,-34.1l19.5,0l-1.7,54.5l2.3,0l17.4,-54.5l19.6,0l-24.7,72l-30,0l2.7,-46.1l-13.4,46.1l-30,0l0.7,-72l19.6,0l-1.8,54.5l2.3,0l17.5,-54.5zm99.4,56.6l0,0q0,2.6 2.65,2.6q2.65,0 4.45,-1l0,0l-0.5,11.3q-4.8,3.9 -10.8,3.9l0,0q-11,0 -12.2,-8l0,0q-5,8 -14.7,8l0,0q-16.4,0 -16.4,-14.1l0,0q0,-2.4 0.5,-5.3l0,0l2.1,-11.7q1.6,-9 7.35,-14.35q5.75,-5.35 15,-5.35q9.25,0 12.55,4.3l0,0l0.5,-3l15.2,0l-5.6,31.5q-0.1,0.6 -0.1,1.2zm-28.3,-12.3l-1.3,7.5q-0.2,0.9 -0.2,2.5q0,1.6 1.5,3.15q1.5,1.55 5.05,1.55q3.55,0 6.15,-2.8l0,0l3,-16.8q-1.1,-2.5 -5.2,-2.5l0,0q-7.7,0 -9,7.4l0,0zm91.6,-10l0,0q0,3.3 -2,6.1l0,0l-16.4,0q0.8,-0.6 0.8,-2q0,-1.4 -1.6,-2.25q-1.6,-0.85 -4.1,-0.85l0,0q-7.5,0 -7.5,4.6l0,0q0,1.8 2.8,2.6q2.8,0.8 6.8,1.3q4,0.5 8,1.45q4,0.95 6.8,3.75q2.8,2.8 2.8,7.5l0,0q0,8.3 -6.65,12.6q-6.65,4.3 -19.35,4.3q-12.7,0 -17.8,-4.1l0,0q-4,-3.2 -4,-8.8l0,0q0,-1.6 0.3,-3.3l0,0l16.7,-0.2q-0.2,1.4 1.65,2.45q1.85,1.05 5.45,1.05q3.6,0 5.2,-0.75q1.6,-0.75 1.6,-2.85l0,0q0,-1.4 -2.8,-1.95q-2.8,-0.55 -6.85,-0.95q-4.05,-0.4 -8.1,-1.3q-4.05,-0.9 -6.85,-3.8q-2.8,-2.9 -2.8,-7.6l0,0q0,-9.1 7.05,-14q7.05,-4.9 20.35,-4.9l0,0q20.5,0 20.5,11.9zm56.8,24.9l0,0q2.3,0 4.1,-1l0,0l-0.5,11.3q-4.7,3.9 -10.7,3.9l0,0q-13.6,0 -13.6,-11.4l0,0q0,-2 0.4,-4.3l0,0l2.2,-12.3q0.3,-1.8 0.3,-3.6l0,0q0,-4.8 -5.05,-4.8q-5.05,0 -7.85,3.4l0,0l-5.6,31.6l-17,0l13.4,-75.9l17,0l-5.7,32.3q5.5,-5.9 13.8,-5.9l0,0q10.1,0 13.1,4.5l0,0q2.1,3 2.1,6.7q0,3.7 -0.6,6.8l0,0l-2.7,14.9q-0.1,0.6 -0.1,1.1l0,0q0,2.7 3,2.7z"/>
   <rect id="svg_183" height="0" width="0" y="-140.59169" x="-217.8838"/>
  </g>
  <g id="svg_184">
   <rect id="svg_185" stroke="#ff8800" fill="rgba(255,136,0,0.1)" height="0" width="0" y="250" x="460"/>
  </g>
  <g id="svg_186" class="selector-part">
   <rect id="svg_187" stroke="#3399ff" fill="rgba(168,202,236,0.5)" height="0" width="0" y="0" x="0"/>
  </g>
 </g>
</svg>